<svg id="图层_1" data-name="图层 1" xmlns="http://www.w3.org/2000/svg" xmlns:xlink="http://www.w3.org/1999/xlink" viewBox="0 0 584.9 345.6"><defs><style>.cls-1{fill:none;}.cls-2{clip-path:url(#clip-path);}.cls-3,.cls-4{fill:#fff;}.cls-4{fill-rule:evenodd;}</style><clipPath id="clip-path" transform="translate(0 0.1)"><rect class="cls-1" width="584.9" height="345.5"/></clipPath></defs><title>logotype_gr2_white</title><path id="Artboard14" class="cls-1" d="M0,0H584.9V345.5H0Z" transform="translate(0 0.1)"/><g class="cls-2"><path class="cls-3" d="M584.3,170.8V142.2c0-4.7-1.1-9-4.9-12.8-2.4-2.4-6.5-3.8-10.7-3.8a17.24,17.24,0,0,0-12.6,4.7,13.64,13.64,0,0,0-10.9-4.7,15,15,0,0,0-10.4,4.2v-3.7H521.5v44.7h13.6V144.1c0-5.2,3.7-6.1,5.5-6.1s5.5,1,5.5,6.1v26.7h13.6V144.1c0-5.2,3.7-6.1,5.5-6.1s5.5,1,5.5,6.1v26.7Z" transform="translate(0 0.1)"/><path class="cls-3" d="M497.6,170.8V126.1H484v26.7c0,5.1-3.7,6.1-5.5,6.1s-5.5-1-5.5-6.1V126.1H459.4v28.6c0,4.7.7,9,4.5,12.8a13.73,13.73,0,0,0,10,3.8,15,15,0,0,0,10.4-4.2v3.7Z" transform="translate(0 0.1)"/><path class="cls-3" d="M411.2,143.8a7.72,7.72,0,0,1,.8-3.5c.8-1.9,2.7-3.5,5.9-3.5s5.1,1.6,5.9,3.5a7.56,7.56,0,0,1,.7,3.5Zm26.8,3c0-11.7-7.1-21.2-20.1-21.2-11.7,0-20,8.2-20,22.8,0,19.3,11.4,22.8,21.3,22.8,8.3,0,12.8-2.5,17.4-7.1l-8.1-8.1c-2.4,2.4-4.5,3.7-9.2,3.7-5.1,0-7.9-3.3-7.9-7H438Z" transform="translate(0 0.1)"/><path class="cls-3" d="M378.9,156.2c0-7.1-4.1-12.7-13.5-13.6l-6.9-.7c-3.1-.3-2.9-2-2.9-2.5,0-1,1.1-2.6,4.4-2.6,3.5,0,7.2.4,9.5,2.7l8.4-8.4c-4.4-4.4-10.3-5.5-17.6-5.5-8.9,0-17.8,4.9-17.8,14.8,0,8.7,5.2,12.2,13,13l6.9.7c2.7.2,3.2,1.6,3.2,2.8,0,2.3-3.8,2.9-5.8,2.9-2.3,0-7.1,0-10.9-3.7l-8.8,8.8c6.1,6.1,12.7,6.5,19.4,6.5,10.4-.1,19.4-4.7,19.4-15.2" transform="translate(0 0.1)"/><path class="cls-3" d="M320.5,170.8V126.1H306.9v26.7c0,5.1-3.7,6.1-5.5,6.1s-5.5-1-5.5-6.1V126.1H282.3v28.6c0,4.7.7,9,4.5,12.8a13.73,13.73,0,0,0,10,3.8,15,15,0,0,0,10.4-4.2v3.7Z" transform="translate(0 0.1)"/><path class="cls-3" d="M258,170.8V111.7H243.7l-13.3,26.1-13.3-26.1H202.8v59.1h14.5V142.5l8.4,14.6H235l8.4-14.6v28.3Z" transform="translate(0 0.1)"/><path class="cls-3" d="M148,170.8V159.3h-4.3a2.43,2.43,0,0,1-2.7-2.7V138.3h7.1V127.8H141V115H127.4v12.8h-4.1v10.5h4.1v19.3c0,6.1,4,13.2,13.9,13.2Z" transform="translate(0 0.1)"/><path class="cls-3" d="M107.5,129.8c-3.1-3.1-6.1-4.2-10.5-4.2a15.53,15.53,0,0,0-10.6,4.2v-3.7H73.3v44.7H86.9V144.1c0-5.1,3.7-6.1,5.5-6.1a6.38,6.38,0,0,1,4.9,2.3l10.2-10.5Z" transform="translate(0 0.1)"/><path class="cls-3" d="M22.5,149.9l5.3-15.8,5,15.8ZM33,111.7H21.8L.3,170.8H15.5l2.9-8.8H36.6l2.7,8.8H54.5Z" transform="translate(0 0.1)"/><path class="cls-3" d="M443.3,59.5V31c0-4.7-.7-9-4.5-12.8a13.73,13.73,0,0,0-10-3.8,15.37,15.37,0,0,0-10.4,4.1V14.9H405.1V59.6h13.6V32.8c0-5.1,3.7-6.1,5.5-6.1s5.5,1,5.5,6.1V59.5Z" transform="translate(0 0.1)"/><path class="cls-3" d="M368.4,42.8c0,2.2-.3,3.6-1.3,4.5-1.5,1.4-2.7,1.7-5.4,1.7-3,0-4.5-1.7-4.5-3.7s1.7-3.6,4.3-3.6h6.9Zm-6.1-28.4c-7.6,0-11.7,1.4-16.3,6l8.5,8.5c2.2-2.2,3.6-3,7.1-3,4.7,0,6.7,1.5,6.7,5.6v1.2h-9c-10.6,0-15.2,6.2-15.2,13A14.51,14.51,0,0,0,348,56.2a14.81,14.81,0,0,0,10.7,4c4.7,0,7.2-1.3,10-4.1v3.7H382v-29c0-11.1-6.9-16.4-19.7-16.4" transform="translate(0 0.1)"/><path class="cls-3" d="M323.6,59.5v-29c0-9-4.6-16.2-14.3-16.2a13.88,13.88,0,0,0-9.8,4.1V.4H285.9V59.5h13.6v-27c0-4.8,3.5-5.8,5.2-5.8s5.2,1,5.2,5.8V59.6h13.7Z" transform="translate(0 0.1)"/><path class="cls-3" d="M264.9,44.9c0-7.1-4.1-12.7-13.5-13.6l-6.9-.7c-3.1-.3-2.9-2-2.9-2.5,0-1,1.1-2.6,4.4-2.6,3.5,0,7.2.4,9.5,2.7l8.4-8.4c-4.4-4.4-10.3-5.5-17.6-5.5-8.9,0-17.8,4.9-17.8,14.8,0,8.7,5.2,12.2,12.9,13l6.9.7c2.7.2,3.2,1.6,3.2,2.8,0,2.3-3.8,2.9-5.8,2.9-2.3,0-7.1,0-10.9-3.7L226,53.6c6.1,6.2,12.7,6.5,19.4,6.5,10.5-.1,19.5-4.6,19.5-15.2" transform="translate(0 0.1)"/><path class="cls-3" d="M187.6,44.4c-5,0-5.3-4.3-5.3-8.9s.3-8.9,5.3-8.9,5.3,4.3,5.3,8.9-.3,8.9-5.3,8.9m5.7-29.5v3.7a12.67,12.67,0,0,0-10-4.1,14.65,14.65,0,0,0-10.6,4c-4.1,4.1-4.1,9.1-4.1,17.2s.1,13.1,4.1,17.2a14.25,14.25,0,0,0,10.5,4,12.66,12.66,0,0,0,9.6-3.7v3.2c0,2.9-1.5,6.8-7.2,6.8-3.1,0-5.6-.7-7.6-2.8l-8.5,8.5c4.6,4.6,9.8,5.8,16.8,5.8,12.2,0,20.2-7.6,20.2-18.2V14.9Z" transform="translate(0 0.1)"/><path class="cls-3" d="M146.8,59.5V31c0-4.7-.7-9-4.5-12.8a13.81,13.81,0,0,0-10.1-3.8,15.37,15.37,0,0,0-10.4,4.1V14.9H108.5V59.6h13.6V32.8c0-5.1,3.7-6.1,5.5-6.1s5.5,1,5.5,6.1V59.5Z" transform="translate(0 0.1)"/><path class="cls-4" d="M71.1,16.6H84.7V59.5H71.1Z" transform="translate(0 0.1)"/><path class="cls-4" d="M71.1-.1H84.7V10.3H71.1Z" transform="translate(0 0.1)"/><path class="cls-3" d="M29,25.4H20.8v-12H29a6,6,0,1,1,0,12m.7-25H6.3V59.5H20.8V38.4h8.9c13.1,0,20.2-9.3,20.2-19S42.8.4,29.7.4" transform="translate(0 0.1)"/><path class="cls-3" d="M378,264.7H366.3l-6.6-10.3h11.7l6.6,10.3Z" transform="translate(0 0.1)"/><path class="cls-3" d="M435.9,321.8v13.3a34.19,34.19,0,0,0-8.3,10.1l-9.8-.1V283.4h9.8v45.8a111.11,111.11,0,0,1,8.3-7.4" transform="translate(0 0.1)"/><path class="cls-3" d="M175.9,262.4v81H166v-3.7H106.4V262.5h9.8v67.4h20V248.8H146v81.1h20V262.5h9.9Z" transform="translate(0 0.1)"/><path class="cls-3" d="M435.9,257.5v17.2H426v-7.4h-3.3c-1,5.5-2.1,10-2.2,10.3l-.5,2.1H409.9l1.2-4.5c0-.1,3.4-13.2,3.4-21.4v-4.9h9.8v4.9c0,1.2-.1,2.5-.2,3.7Z" transform="translate(0 0.1)"/><path class="cls-3" d="M77.6,303.5v9.8H57.1v31.8H47.3V313.3H26.8v-9.8H47.3V261.6H29.4v-9.8H75v9.8H57.1v41.9Z" transform="translate(0 0.1)"/><path class="cls-3" d="M75.1,271.6l-5.6,19.8H59.4l5.7-19.8Z" transform="translate(0 0.1)"/><path class="cls-3" d="M45.1,291.4H35l-5.6-19.8h10Z" transform="translate(0 0.1)"/><path class="cls-3" d="M269.7,250.6l-5.6,9.9H253.9l5.6-9.9Z" transform="translate(0 0.1)"/><path class="cls-3" d="M236,260.4H225.8l-5.6-9.9h10.2Z" transform="translate(0 0.1)"/><path class="cls-3" d="M469.4,258.5H459.2l-5.6-9.9h10.2Z" transform="translate(0 0.1)"/><path class="cls-3" d="M449.6,267.3h26.9v7.2H449.6Zm24.3,64.1H453.3v-10h20.6Zm-4.2-37.3H453.3v-9.7h16.4Zm9.8,9.9V274.8h6.8V257.6H439.7v17.2h3.8V345h9.8v-3.7h20.6V345h9.8V311.7H453.2V304Z" transform="translate(0 0.1)"/><path class="cls-3" d="M250.2,302.7v6.8h29.3v9.8H252.8c7.1,10.8,26.2,14.7,26.4,14.7l.3.1v10l-2.2-.4c-1.2-.2-22.3-4.5-32.1-17.9-9.8,13.4-30.9,17.7-32.1,17.9l-2.2.4v-10l.3-.1c.3,0,19.4-3.9,26.5-14.7H211v-9.8h29.3v-6.8H208.2v-9.8h32.1V286H211.8v-9.8h28.5v-6.8H211.2v-9.8h68.1v9.8H250.2v6.8h28.5V286H250.2v6.8h32.1v9.8H250.2Z" transform="translate(0 0.1)"/><path class="cls-3" d="M386.9,341.7H375.8c-2.8-5.7-14.8-31.5-20.3-61.2H353v64.7h-9.8V280.5H313.6v-9.9h29.6v-22H353v22h29.6v9.9h-17a230.66,230.66,0,0,0,19.7,58.3l1.6,2.9Z" transform="translate(0 0.1)"/><path class="cls-3" d="M365.7,280.4a230.66,230.66,0,0,0,19.7,58.3l1.6,3H375.9c-2.8-5.7-14.8-31.5-20.3-61.2h10.1Z" transform="translate(0 0.1)"/><path class="cls-3" d="M330.8,280.4a230.66,230.66,0,0,1-19.7,58.3l-1.6,3h11.1c2.8-5.7,14.8-31.5,20.3-61.2H330.8Z" transform="translate(0 0.1)"/><path class="cls-3" d="M19.7,281.5v36.6l6.1-2v10.4L.8,335V324.6l9.1-3.1v-40H.8v-9.8H9.9V248.8h9.8v22.9h6.6v9.8Z" transform="translate(0 0.1)"/></g></svg>